<svg width="106" height="106" viewBox="0 0 106 106" fill="none" xmlns="http://www.w3.org/2000/svg">
<path d="M102.968 14.4976C101.408 12.9355 98.8782 12.9329 97.3189 14.491L49.3926 62.2908L32.1009 43.5103C30.6068 41.8885 28.0806 41.7833 26.456 43.2772C24.8327 44.7714 24.7288 47.2988 26.2229 48.9221L46.331 70.76C47.0674 71.5604 48.098 72.0252 49.1847 72.0477C49.2139 72.049 49.2421 72.049 49.27 72.049C50.3261 72.049 51.342 71.6295 52.0904 70.8838L102.96 20.1477C104.523 18.5898 104.526 16.0596 102.968 14.4976Z" fill="#2BA9C0"/>
<path d="M102.005 49.0049C99.7984 49.0049 98.01 50.7933 98.01 53C98.01 77.8195 77.8195 98.01 53 98.01C28.1819 98.01 7.98996 77.8195 7.98996 53C7.98996 28.1819 28.1819 7.98996 53 7.98996C55.2065 7.98996 56.9951 6.20162 56.9951 3.99508C56.9951 1.78834 55.2065 0 53 0C23.7755 0 0 23.7755 0 53C0 82.2233 23.7755 106 53 106C82.2233 106 106 82.2233 106 53C106 50.7935 104.212 49.0049 102.005 49.0049Z" fill="#2BA9C0"/>
</svg>
