<svg width="34" height="22" viewBox="0 0 34 22" fill="none" xmlns="http://www.w3.org/2000/svg">
<path d="M10.3808 21.5619C16.0912 21.5619 20.7203 16.9327 20.7203 11.2223C20.7203 5.51198 16.0912 0.882812 10.3808 0.882812C4.67043 0.882812 0.0412598 5.51198 0.0412598 11.2223C0.0412598 16.9327 4.67043 21.5619 10.3808 21.5619Z" fill="#F52825"/>
<path d="M22.7892 21.5619C28.4996 21.5619 33.1288 16.9327 33.1288 11.2223C33.1288 5.51198 28.4996 0.882812 22.7892 0.882812C17.0789 0.882812 12.4497 5.51198 12.4497 11.2223C12.4497 16.9327 17.0789 21.5619 22.7892 21.5619Z" fill="#FCB031"/>
<path fill-rule="evenodd" clip-rule="evenodd" d="M16.5845 2.94922C14.0708 4.84899 12.4487 7.8473 12.4487 11.2208C12.4487 14.5944 14.0708 17.5927 16.5845 19.4924C19.0983 17.5927 20.7203 14.5944 20.7203 11.2208C20.7203 7.8473 19.0983 4.84899 16.5845 2.94922Z" fill="#FF7814"/>
</svg>
