<svg width="81" height="26" viewBox="0 0 81 26" fill="none" xmlns="http://www.w3.org/2000/svg">
<path d="M32.921 0.668365L28.8788 25.8224H35.3397L39.3794 0.668365H32.921ZM52.4094 10.9147C50.1516 9.79975 48.7675 9.04724 48.7675 7.90689C48.7951 6.87005 49.9379 5.80782 52.49 5.80782C54.5891 5.7551 56.1319 6.24839 57.3023 6.73921L57.8886 7.0009L58.767 1.73805C57.4909 1.24475 55.4674 0.701214 52.9681 0.701214C46.5878 0.701214 42.0951 4.01848 42.0672 8.76291C42.0145 12.264 45.2838 14.2069 47.7304 15.3723C50.2297 16.5679 51.0805 17.343 51.0805 18.4053C51.0529 20.0362 49.0595 20.7887 47.1995 20.7887C44.6223 20.7887 43.238 20.4011 41.1364 19.4923L40.2856 19.1048L39.3821 24.5741C40.8998 25.2488 43.691 25.8425 46.5881 25.8729C53.3686 25.8729 57.7807 22.6059 57.8362 17.5495C57.8583 14.7758 56.1344 12.6513 52.4094 10.9147ZM75.3307 0.74621H70.3321C68.7917 0.74621 67.6213 1.18927 66.9543 2.76992L57.3573 25.8224H64.1378L66.0053 20.8314H73.5914L74.5603 25.8425H80.5406L75.3307 0.74621ZM67.8857 15.7947C68.0166 15.8074 70.4883 7.6474 70.4883 7.6474L72.4565 15.7947C72.4565 15.7947 69.1619 15.7947 67.8857 15.7947ZM23.4801 0.668365L17.1501 17.7582L16.4605 14.3879C15.2901 10.4993 11.6206 6.27351 7.52539 4.17445L13.3218 25.7973H20.1579L30.3162 0.671124H23.4801V0.668365Z" fill="#2394BC"/>
<path d="M14.3313 3.9116C13.838 1.99362 12.2648 0.70006 10.1282 0.672455H0.103242L0 1.13787C7.82016 3.06579 14.384 8.99805 16.5135 14.5781L14.3313 3.9116Z" fill="#EFC75E"/>
</svg>
